<svg xmlns="http://www.w3.org/2000/svg" viewBox="0 0 500 500"><defs><style>.cls-1{isolation:isolate;}.cls-2{fill:#fff;}.cls-3{fill:#e8dedc;opacity:0.66;}.cls-10,.cls-12,.cls-19,.cls-22,.cls-24,.cls-3,.cls-35,.cls-42,.cls-43,.cls-7,.cls-9{mix-blend-mode:multiply;}.cls-4{fill:#827cbb;}.cls-5{fill:#5c53a2;}.cls-6{fill:#6f67bb;}.cls-12,.cls-7{fill:#b89692;}.cls-19,.cls-24,.cls-35,.cls-7,.cls-9{opacity:0.5;}.cls-8{fill:#faebd9;}.cls-10,.cls-24{fill:#88adc7;}.cls-10{opacity:0.28;}.cls-11{fill:#ed604e;}.cls-13{fill:#b04434;}.cls-14{fill:#d84c3a;}.cls-15{fill:#ed7566;}.cls-16{fill:#ffa498;}.cls-17{fill:#f1e0cc;}.cls-18{fill:#5f9ca4;}.cls-19{fill:#93bbd7;}.cls-20{fill:#bfd8dc;}.cls-21{fill:#49848c;}.cls-22{fill:#d8e2ec;}.cls-23{fill:#436a90;}.cls-25{fill:#a5bdd1;}.cls-26{fill:#2b4c6b;}.cls-27{fill:#edb446;}.cls-28{fill:#f0d29b;}.cls-29{fill:#d08819;}.cls-30{fill:#5c9dbf;}.cls-31{fill:#4581a1;}.cls-32{fill:#5590b0;}.cls-33{fill:#41687e;}.cls-34{fill:#edb047;}.cls-35{fill:#dba49e;}.cls-36{fill:#ffd88e;}.cls-37{fill:#e0a435;}.cls-38{opacity:0.72;}.cls-39{fill:#899178;}.cls-40,.cls-42,.cls-43{fill:#b9c3ac;}.cls-41{fill:#798268;}.cls-42{opacity:0.93;}.cls-43{opacity:0.38;}.cls-44{fill:#dc708a;}.cls-45{fill:#cf6579;}.cls-46{fill:#bf4e6a;}.cls-47{fill:#eb869e;}</style></defs><title>books</title><g class="cls-1"><g id="BACKGROUND"><rect class="cls-2" width="500" height="500"/></g><g id="OBJECTS"><polygon class="cls-3" points="303.81 464.43 263.55 478.41 65.9 440.98 154.02 409.48 303.81 464.43"/><polygon class="cls-4" points="116.19 366.46 221.64 323.34 401.33 357.25 302.55 402.2 116.19 366.46"/><polygon class="cls-5" points="157.64 362.93 222.74 334.73 360.81 360.72 298.85 389.8 157.64 362.93"/><path class="cls-6" d="M401.33,357.25l-.19,3.92-3.27,1.77,1.26,52.38,1.69-.77-.1,3.71-96.91,46.17s-10.83-2.95-11.47-11.52c-.9-12.13,10.21-50.71,10.21-50.71Z"/><polygon class="cls-7" points="116.19 366.46 221.64 323.34 377.18 365.02 264.38 394.88 116.19 366.46"/><path class="cls-5" d="M303.81,464.43l-25.63-4.74-5.86-1.07L139.64,434.11,133.81,433l-17.39-3.21s-5.3-6.77-5.3-30.79c0-26.67,5.07-32.57,5.07-32.57l19.16,3.68,5.58,1.07,132,25.32,5.59,1.06,24,4.61a117.29,117.29,0,0,0-4.19,31.55A95,95,0,0,0,303.81,464.43Z"/><path class="cls-8" d="M399.13,415.32l-91.94,43.89s-3.85-9.53-4-27.94C303.08,412,306.45,405,306.45,405l91.42-42.06Z"/><path class="cls-7" d="M304.39,413.12c.47-2.28,2.06-8.12,2.06-8.12l91.42-42.06.21,7.16S329.2,403.45,304.39,413.12Z"/><path class="cls-4" d="M278.18,459.69l-5.86-1.07c-3.8-28.74-1.46-50.43.63-62.09l5.59,1.06C276.53,409.1,274.19,431,278.18,459.69Z"/><path class="cls-4" d="M139.64,434.11c-4.95-30.29-1.68-52.64,1.29-62.9l-5.58-1.07c-3.66,10.38-6.14,32.06-1.54,62.89Z"/><g class="cls-9"><path class="cls-10" d="M115.13,427.37a11.78,11.78,0,0,0,1.29,2.45L133.81,433l5.83,1.08,132.68,24.51,5.86,1.07,25.63,4.74s-.29-.76-.74-2.14C303.07,462.29,117.17,427.58,115.13,427.37Z"/></g><polygon class="cls-11" points="386.05 327.32 302.73 294.39 127.15 327.52 203.96 362.25 386.05 327.32"/><polygon class="cls-12" points="356.9 315.8 302.73 294.39 127.15 327.52 173.34 348.4 280.16 351.44 356.9 315.8"/><path class="cls-13" d="M127.15,327.53l.19,3.83,3.19,1.73-1.23,25.37-1.65-.76.1,3.63,75,35.91s3.14-1.52,3.76-9.9c.87-11.85-2.53-25.09-2.53-25.09Z"/><polygon class="cls-14" points="203.96 362.25 202.73 397.24 385.83 363.43 386.05 327.32 203.96 362.25"/><polygon class="cls-15" points="241.36 355 232.96 356.61 232.96 391.54 241.36 389.99 241.36 355"/><polygon class="cls-15" points="256.6 352.08 246.25 354.06 246.25 389.08 256.6 387.17 256.6 352.08"/><polygon class="cls-16" points="163.47 320.56 155.07 322.17 232.96 356.44 241.36 354.89 163.47 320.56"/><polygon class="cls-16" points="178.71 317.64 168.36 319.62 246.25 353.99 256.6 352.08 178.71 317.64"/><polygon class="cls-16" points="263.77 301.4 255.37 303.01 333.26 337.28 341.66 335.73 263.77 301.4"/><polygon class="cls-16" points="279.01 298.48 268.66 300.46 346.55 334.83 356.9 332.92 279.01 298.48"/><polygon class="cls-15" points="356.9 332.92 348.5 334.53 348.5 370.22 356.9 368.67 356.9 332.92"/><polygon class="cls-15" points="344.01 335.36 333.66 337.35 333.66 373.14 344.01 371.23 344.01 335.36"/><polygon class="cls-17" points="129.31 358.46 199.43 392.14 200.14 364.99 130.53 333.09 129.31 358.46"/><polygon class="cls-7" points="130.07 342.59 199.88 374.83 200.14 364.99 130.53 333.09 130.07 342.59"/><polygon class="cls-18" points="107.98 298.69 186.23 262.34 351.14 284.13 279 320.82 107.98 298.69"/><polygon class="cls-19" points="118.91 293.76 186.23 262.34 351.14 284.13 285.27 317.64 118.91 293.76"/><path class="cls-20" d="M351.14,284.13l-.18,3.62-3,1.79,1.16,21.58,1.55-.8-.1,3.42-70.41,37.7s-10-2.13-10.53-10c-.82-11.08,9.37-20.65,9.37-20.65Z"/><path class="cls-21" d="M279,320.82s-4.55,2.52-4.43,16.64a20.52,20.52,0,0,0,5.59,14l-172-22s-5.35-5.26-5.44-15.13c-.09-10.19,5.23-15.58,5.23-15.58Z"/><polygon class="cls-18" points="147.08 315.13 142.06 319.59 147.08 325.3 152.09 320.84 147.08 315.13"/><polygon class="cls-18" points="162.44 317.05 157.42 321.51 162.44 327.21 167.46 322.76 162.44 317.05"/><polygon class="cls-18" points="177.8 318.96 172.79 323.42 177.8 329.13 182.82 324.67 177.8 318.96"/><polygon class="cls-18" points="193.17 320.87 188.15 325.33 193.17 331.04 198.18 326.58 193.17 320.87"/><polygon class="cls-18" points="208.53 322.79 203.51 327.25 208.53 332.95 213.55 328.5 208.53 322.79"/><polygon class="cls-18" points="223.89 324.7 218.88 329.16 223.89 334.87 228.91 330.41 223.89 324.7"/><polygon class="cls-17" points="349.12 311.12 283.26 346.48 282.58 323.2 347.96 289.54 349.12 311.12"/><polygon class="cls-22" points="349.12 295.08 282.97 336.44 282.58 323.2 347.96 289.54 349.12 295.08"/><polygon class="cls-23" points="147.97 252.03 228.7 220.85 391.67 251.24 316.95 284.08 147.97 252.03"/><polygon class="cls-24" points="147.97 252.03 228.7 220.85 377.18 248.56 367.09 262.05 297.67 280.27 147.97 252.03"/><path class="cls-25" d="M391.67,251.24l-.44,3.59-3.14,1.64.17,26.82,1.61-.71-.35,3.4-73.08,33.94s-9.76-8.65-9.76-16.5c0-11.11,10.27-19.34,10.27-19.34Z"/><path class="cls-26" d="M317,284.08s-4.11,4.5-4.11,15.24a63.73,63.73,0,0,0,3.6,20.6l-170-31s-6.05-15.59-5.41-25.44C141.69,253.31,148,252,148,252Z"/><path class="cls-24" d="M317,284.08,148,252s-6.28,1.28-6.94,11.46a34.43,34.43,0,0,0,1.47,11.27C173.24,275.19,317,284.08,317,284.08Z"/><path class="cls-2" d="M388.26,283.29,319.9,315.13s-2.21-9.3-2.21-16.59c0-9,2.66-11.91,2.66-11.91l67.74-30.16Z"/><path class="cls-7" d="M388.11,258.36l0-1.89-67.74,30.16s-2.66,2.92-2.66,11.91c0,.83,0,1.59.08,2.32C325.65,295.82,372.45,267.37,388.11,258.36Z"/><polygon class="cls-27" points="373.84 237.49 295.59 206.56 130.68 237.68 202.82 270.29 373.84 237.49"/><polygon class="cls-7" points="359.74 236.32 295.59 206.56 144.75 235.03 214.7 263.1 359.74 236.32"/><polygon class="cls-2" points="342.13 236.31 291 214.94 228.71 226.84 276.27 249.22 342.13 236.31"/><path class="cls-28" d="M130.68,237.68l.17,3.6,3,1.63-1.16,13.43-1.56-.71.1,3.41,70.42,33.72s9.94-2.7,10.52-10.56c.83-11.14-9.36-11.91-9.36-11.91Z"/><path class="cls-29" d="M202.82,270.29s4,3.92,3.32,12.82a15.22,15.22,0,0,1-4.48,9.65l172-31.75s6.16-1.49,6.25-11.37c.09-10.19-6-12.15-6-12.15Z"/><path class="cls-8" d="M132.7,256.34,198.56,288s3.1,0,3.1-6.94a15.94,15.94,0,0,0-2.43-8.18l-65.37-30Z"/><path class="cls-7" d="M200.69,275.83a15,15,0,0,0-1.46-3l-65.37-30-.3,3.47S177.92,267,200.69,275.83Z"/><polygon class="cls-30" points="398.03 193.19 314.71 160.25 139.13 193.39 215.94 228.11 398.03 193.19"/><polygon class="cls-24" points="352.61 202.33 269.29 169.4 139.13 193.39 232.09 225.01 352.61 202.33"/><path class="cls-31" d="M139.13,193.39l.18,3.83,3.2,1.73-1.23,25.37-1.66-.76.11,3.63,75,35.91s3.14-1.52,3.76-9.9c.88-11.85-2.53-25.09-2.53-25.09Z"/><polygon class="cls-32" points="215.94 228.11 214.7 263.1 397.8 229.29 398.03 193.19 215.94 228.11"/><polygon class="cls-33" points="268.58 217.94 242.88 222.56 242.88 257.58 268.58 253.03 268.58 217.94"/><polygon class="cls-33" points="373.84 197.72 345.64 203.21 345.64 239 373.84 233.59 373.84 197.72"/><polygon class="cls-33" points="268.58 217.94 242.88 222.56 160.73 188.53 186.43 183.99 268.58 217.94"/><polygon class="cls-33" points="373.84 197.72 345.64 203.21 263.49 169.95 291.68 164.54 373.84 197.72"/><polygon class="cls-17" points="141.28 224.32 211.4 258 212.12 230.85 142.51 198.95 141.28 224.32"/><polygon class="cls-7" points="142.05 208.45 211.86 240.69 212.12 230.85 142.51 198.95 142.05 208.45"/><polygon class="cls-34" points="117.9 157.56 199.97 126.24 361.32 164.33 285.13 193.59 117.9 157.56"/><polygon class="cls-35" points="117.9 157.56 199.97 126.24 346.98 160.97 266.47 189.57 117.9 157.56"/><polygon class="cls-36" points="361.32 164.33 360.7 167.9 357.5 169.38 356.67 198.19 356.6 197.14 358.32 197.55 357.81 200.94 283.2 231.37 285.13 193.59 361.32 164.33"/><polygon class="cls-37" points="285.13 193.59 283.2 231.37 116.87 193.33 117.9 157.56 285.13 193.59"/><g class="cls-38"><polygon class="cls-2" points="145.44 185.94 148.32 183.66 145.38 180.13 145.35 176.02 141.23 175.13 138.29 171.59 135.4 173.87 131.28 172.98 131.32 177.09 128.44 179.36 131.37 182.9 131.41 187.01 135.53 187.9 138.47 191.43 141.35 189.16 145.47 190.04 145.44 185.94"/><polygon class="cls-2" points="185.47 194.59 188.36 192.31 185.42 188.78 185.38 184.67 181.26 183.78 178.33 180.25 175.44 182.52 171.32 181.63 171.36 185.74 168.47 188.02 171.41 191.55 171.45 195.66 175.57 196.55 178.5 200.08 181.39 197.81 185.51 198.7 185.47 194.59"/><polygon class="cls-2" points="225.51 203.24 228.4 200.97 225.46 197.43 225.42 193.32 221.3 192.44 218.36 188.9 215.48 191.18 211.36 190.28 211.4 194.39 208.51 196.67 211.45 200.2 211.49 204.31 215.6 205.2 218.54 208.74 221.43 206.46 225.55 207.35 225.51 203.24"/><polygon class="cls-2" points="265.55 211.9 268.43 209.62 265.49 206.09 265.46 201.98 261.34 201.09 258.4 197.55 255.51 199.83 251.4 198.94 251.43 203.05 248.55 205.32 251.48 208.86 251.52 212.97 255.64 213.86 258.58 217.39 261.46 215.12 265.58 216 265.55 211.9"/></g><polygon class="cls-2" points="356.67 198.19 286.89 226.75 288.4 196.3 357.5 169.38 356.67 198.19"/><path class="cls-7" d="M357.43,171.27l.07-1.89L288.4,196.3l-.35,5.19S341.36,179.53,357.43,171.27Z"/><polygon class="cls-39" points="131.57 120.02 250.3 95.82 368.07 126.73 252.31 151.66 131.57 120.02"/><polygon class="cls-40" points="177.15 121.48 250.32 106.34 301.14 120.02 228.71 135.61 177.15 121.48"/><path class="cls-40" d="M368.07,126.73l-.17,3.52L365,131.83l1.13,23.25-.05-1,1.41.83.06,2.77-114.08,26s-2.88-1.39-3.45-9.07c-.8-10.87,2.32-23,2.32-23Z"/><polygon class="cls-41" points="252.31 151.66 253.44 183.73 131.77 152.2 131.57 120.02 252.31 151.66"/><polygon class="cls-40" points="144.65 130.2 234.15 154.31 234.15 173.42 144.65 148.43 144.65 130.2"/><polygon class="cls-42" points="139.76 118.35 250.3 95.82 356.92 123.81 220.53 143.33 139.76 118.35"/><polygon class="cls-2" points="366.1 155.08 256.46 179.06 255.81 154.17 364.97 131.83 366.1 155.08"/><polygon class="cls-43" points="365.39 133.67 255.81 163.43 255.81 154.17 364.97 131.83 365.39 133.67"/><polygon class="cls-44" points="352.61 86.99 271.88 55.8 108.92 86.19 183.63 119.03 352.61 86.99"/><path class="cls-45" d="M108.91,86.19l.45,3.6,3.13,1.63-.16,20.82-1.62-.71.36,3.4,73.07,33.95s6.63-2.16,6-13.11c-.79-13.09-6.49-16.74-6.49-16.74Z"/><path class="cls-46" d="M183.63,119s4.12,4.51,4.12,15.24c0,11.27-3.61,14.61-3.61,14.61l170-31s5.06-5.59,4.41-15.44C357.89,92.27,352.61,87,352.61,87Z"/><path class="cls-17" d="M112.33,112.24l68.35,31.85s2.21-3.31,2.21-10.6c0-9-2.66-11.91-2.66-11.91L112.49,91.42Z"/><path class="cls-7" d="M112.47,93.31l0-1.89,67.74,30.16s2,2.21,2.54,8.68C182.77,130.26,128.13,102.32,112.47,93.31Z"/><ellipse class="cls-45" cx="271.62" cy="118.43" rx="47.2" ry="7.31" transform="translate(-16.58 49.53) rotate(-10.11)"/><ellipse class="cls-47" cx="229.32" cy="86.19" rx="59.17" ry="12.39" transform="translate(-7.15 22.17) rotate(-5.45)"/></g></g></svg>